<?xml version="1.0" encoding="utf-8"?>
<!-- Generator: Adobe Illustrator 25.0.0, SVG Export Plug-In . SVG Version: 6.00 Build 0)  -->
<svg version="1.1" id="Vrstva_1" xmlns="http://www.w3.org/2000/svg" xmlns:xlink="http://www.w3.org/1999/xlink" x="0px" y="0px"
	 viewBox="0 0 1000 1000" style="enable-background:new 0 0 1000 1000;" xml:space="preserve">
<style type="text/css">
	.st0{fill:#E0E0E0;}
	.st1{fill:#FFFFFF;}
</style>
<circle class="st0" cx="500.2" cy="500" r="500"/>
<path class="st1" d="M666.8,638.8H333.7v-55.5h333.1V638.8z M666.8,527.8H333.7v-55.5h333.1V527.8z M666.8,416.7H333.7v-55.5h333.1
	V416.7z M250.4,777.6l41.6-41.6l41.6,41.6l41.6-41.6l41.6,41.6l41.6-41.6l41.6,41.6l41.6-41.6l41.6,41.6l41.6-41.6l41.6,41.6
	l41.6-41.6l41.6,41.6V222.4l-41.6,41.6l-41.6-41.6l-41.6,41.6l-41.6-41.6l-41.6,41.6l-41.6-41.6l-41.6,41.6L417,222.4l-41.6,41.6
	l-41.6-41.6L292,264.1l-41.6-41.6V777.6z"/>
</svg>
